<svg width="42" height="42" viewBox="0 0 42 42" fill="none" xmlns="http://www.w3.org/2000/svg">
<g opacity="0.7">
<path d="M35.8731 35.9297C31.749 40.1492 26.8355 42.1716 21.1304 41.9887C15.4274 41.8099 10.4697 39.5634 6.25719 35.2535C1.96034 30.8572 -0.124802 25.9841 0.00577111 20.6424C0.140361 15.2987 2.1331 10.6537 5.99404 6.70346C8.62759 4.00898 11.7654 2.10372 15.4053 0.979477C19.0473 -0.142711 22.7114 -0.300968 26.3975 0.506761C30.0817 1.31655 33.2395 3.06765 35.8731 5.76008C39.8224 9.80078 41.8654 14.7581 41.9939 20.6404C42.1265 26.5247 40.0836 31.6197 35.8731 35.9297Z" fill="#E1F0FF"/>
</g>
<mask id="mask0_1_849" style="mask-type:luminance" maskUnits="userSpaceOnUse" x="0" y="0" width="42" height="42">
<path d="M35.8731 35.9297C31.749 40.1492 26.8355 42.1716 21.1304 41.9887C15.4274 41.8099 10.4697 39.5634 6.25719 35.2535C1.96034 30.8572 -0.124802 25.9841 0.00577111 20.6424C0.140361 15.2987 2.1331 10.6537 5.99404 6.70346C8.62759 4.00898 11.7654 2.10372 15.4053 0.979477C19.0473 -0.142711 22.7114 -0.300968 26.3975 0.506761C30.0817 1.31655 33.2395 3.06765 35.8731 5.76008C39.8224 9.80078 41.8654 14.7581 41.9939 20.6404C42.1265 26.5247 40.0836 31.6197 35.8731 35.9297Z" fill="white"/>
</mask>
<g mask="url(#mask0_1_849)">
<path d="M19.2337 30.046C19.2337 30.046 18.0907 32.0293 14.4267 30.0213C11.2929 28.3031 13.3419 26.0011 13.3419 26.0011C13.3419 26.0011 11.1965 27.4111 10.3227 26.3588C9.45083 25.3065 12.2712 24.4432 12.2712 24.4432C12.2712 24.4432 6.81929 25.3291 6.60836 22.0077C6.39744 18.6864 10.7726 19.3009 10.7726 19.3009C10.7726 19.3009 5.21224 17.9382 6.62443 13.7763C8.03663 9.61226 11.6304 11.0181 11.6304 11.0181C11.6304 11.0181 8.10694 10.2309 8.46049 8.79426C8.81605 7.35555 12.231 9.47867 12.231 9.47867C12.231 9.47867 9.25999 6.29091 12.1467 3.10932C15.0333 -0.0722647 19.1273 5.2941 19.1273 5.2941C19.1273 5.2941 18.6251 1.97892 20.8508 1.06637C23.0766 0.153817 22.3715 5.179 22.3715 5.179C22.3715 5.179 22.0782 0.679971 25.4932 1.33561C28.9082 1.99125 26.7849 7.56108 26.7849 7.56108C26.7849 7.56108 28.5225 2.3242 32.1665 4.58913C35.8104 6.85406 33.0142 11.8792 31.3911 12.7219C29.7679 13.5646 32.8635 9.2978 34.8241 11.6655C36.7867 14.0332 31.6 14.5758 31.6 14.5758C31.6 14.5758 36.3689 13.2645 37.0057 17.2333C37.6425 21.202 32.1002 21.7138 32.1002 21.7138C32.1002 21.7138 34.3862 21.5391 34.4666 23.504C34.5469 25.4688 30.9933 23.578 30.9933 23.578C30.9933 23.578 33.7775 26.1368 31.9174 28.4284C30.0592 30.718 26.9877 27.2795 26.9877 27.2795C26.9877 27.2795 28.4743 29.6061 26.4956 30.42C24.5169 31.2319 23.2373 27.8201 23.2373 27.8201L19.2337 30.046Z" fill="#161114"/>
<path d="M18.0984 30.9791C19.3439 29.8898 18.1868 23.6581 18.1868 23.6581H25.2458C25.2458 23.6581 24.0887 29.8918 25.3342 30.9791C26.5796 32.0684 36.011 31.9677 35.1211 42.4558H8.30949C7.42159 31.9677 16.853 32.0663 18.0984 30.9791Z" fill="#8E3E30"/>
<path d="M18.4588 30.3563C19.0755 28.4367 18.1876 23.6581 18.1876 23.6581H25.2466C25.2466 23.6581 24.7705 26.2272 24.7584 28.3565C22.9826 29.787 20.7488 30.3543 18.4588 30.3563Z" fill="#723021"/>
<path d="M16.1986 31.275C16.1986 31.275 17.197 34.7093 21.7168 34.7361C26.2387 34.7093 27.235 31.275 27.235 31.275C37.4659 33.7475 35.2723 42.4557 35.2723 42.4557L21.7691 42.5544H21.7168H21.6646L8.16137 42.4557C8.15936 42.4557 5.96774 33.7495 16.1986 31.275Z" fill="#86C1E2"/>
<path d="M18.1224 42.538L14.6914 31.4702C14.6914 31.4702 7.75696 32.4444 7.16034 42.464L18.1224 42.538Z" fill="#D84848"/>
<path d="M25.4347 42.538L28.8657 31.4702C28.8657 31.4702 35.3582 32.4444 35.9548 42.464L25.4347 42.538Z" fill="#D84848"/>
<path d="M29.8446 20.7353C29.483 22.0857 28.4686 23.2839 27.6691 23.0599C26.8716 22.8358 26.5923 21.2759 26.9519 19.9255C27.3135 18.5752 28.1773 17.9442 28.9748 18.1683C29.7743 18.3923 30.2042 19.385 29.8446 20.7353Z" fill="#723021"/>
<path d="M29.6895 20.1618C29.6433 19.9913 29.5911 19.8268 29.5328 19.6686C29.5027 19.5905 29.4685 19.5165 29.4304 19.4507C29.3942 19.387 29.344 19.3315 29.3118 19.3212C29.2877 19.3171 29.2837 19.3212 29.2355 19.3541C29.2275 19.3623 29.2074 19.3767 29.2114 19.3767C29.1993 19.3911 29.1752 19.4117 29.1732 19.4199C29.1672 19.4302 29.1632 19.4384 29.1551 19.4507L29.129 19.4939C29.0607 19.6172 29.0125 19.7734 28.9663 19.9296C28.9201 20.0858 28.884 20.2482 28.8518 20.4146C28.8157 20.5791 28.7835 20.7455 28.7534 20.912L28.663 21.4156L28.5766 21.9212L28.5143 21.7896C28.5465 21.8163 28.5666 21.8369 28.5907 21.8616C28.6148 21.8862 28.6369 21.9109 28.657 21.9376C28.6991 21.991 28.7393 22.0507 28.7674 22.1205C28.7956 22.1904 28.8136 22.2747 28.7976 22.361C28.7795 22.4473 28.7293 22.5151 28.677 22.5624C28.5686 22.657 28.448 22.694 28.3315 22.7227C28.215 22.7515 28.0965 22.7618 27.978 22.77C28.0885 22.7289 28.1969 22.6837 28.2974 22.6323C28.3476 22.6056 28.3978 22.5768 28.44 22.546C28.4842 22.5151 28.5244 22.4802 28.5525 22.4432C28.6087 22.3651 28.5987 22.3055 28.5565 22.2295C28.5324 22.1925 28.5003 22.1575 28.4641 22.1226C28.446 22.1061 28.4259 22.0897 28.4059 22.0753C28.3858 22.0609 28.3617 22.0445 28.3476 22.0363L28.2853 22.0013V21.9047C28.2873 21.7259 28.2873 21.5533 28.2994 21.3765C28.3135 21.2018 28.3255 21.0271 28.3476 20.8524C28.3717 20.6777 28.3998 20.503 28.434 20.3283C28.4742 20.1557 28.5184 19.981 28.5746 19.8083C28.6329 19.6357 28.7072 19.4651 28.8197 19.2966C28.8498 19.2555 28.8819 19.2123 28.9302 19.165C28.9543 19.1424 28.9663 19.1362 28.9844 19.1198C29.0185 19.091 29.0366 19.0869 29.0627 19.0684C29.117 19.0417 29.1752 19.015 29.2516 19.0129C29.3259 19.0088 29.4083 19.0335 29.4645 19.0766C29.575 19.165 29.6111 19.2678 29.6433 19.3582C29.6734 19.4507 29.6875 19.5432 29.6975 19.6336C29.7216 19.8083 29.7156 19.9851 29.6895 20.1618Z" fill="#5E1D12"/>
<path d="M28.189 22.3877C29.3641 22.3877 30.3143 23.3619 30.3143 24.5622C30.3143 25.7645 29.3621 26.7367 28.189 26.7367C27.0138 26.7367 26.0637 25.7624 26.0637 24.5622" stroke="white" stroke-width="0.234459" stroke-miterlimit="10" stroke-linecap="round"/>
<path d="M13.5816 20.7353C13.9432 22.0857 14.9576 23.2839 15.7572 23.0599C16.5567 22.8358 16.8339 21.2759 16.4743 19.9255C16.1127 18.5752 15.2489 17.9442 14.4514 18.1683C13.6519 18.3923 13.222 19.385 13.5816 20.7353Z" fill="#723021"/>
<path d="M13.7362 20.1613C13.7121 19.9866 13.706 19.8078 13.7241 19.627C13.7322 19.5365 13.7482 19.444 13.7784 19.3515C13.8105 19.2611 13.8467 19.1583 13.9571 19.07C14.0134 19.0268 14.0957 19.0021 14.1701 19.0063C14.2464 19.0083 14.3047 19.035 14.3589 19.0617C14.385 19.0782 14.4031 19.0844 14.4372 19.1131C14.4553 19.1275 14.4674 19.1337 14.4915 19.1583C14.5417 19.2056 14.5738 19.2488 14.602 19.2899C14.7145 19.4584 14.7888 19.629 14.847 19.8017C14.9033 19.9743 14.9495 20.149 14.9877 20.3216C15.0218 20.4963 15.0499 20.671 15.074 20.8457C15.0981 21.0204 15.1102 21.1951 15.1223 21.3698C15.1343 21.5445 15.1343 21.7192 15.1363 21.898V21.9946L15.074 22.0296C15.058 22.0378 15.0339 22.0543 15.0158 22.0686C14.9957 22.083 14.9756 22.0995 14.9575 22.1159C14.9214 22.1488 14.8892 22.1858 14.8651 22.2228C14.8209 22.2968 14.8109 22.3564 14.8691 22.4365C14.8953 22.4735 14.9354 22.5085 14.9816 22.5393C15.0258 22.5722 15.074 22.601 15.1243 22.6256C15.2267 22.677 15.3332 22.7222 15.4437 22.7633C15.3272 22.7551 15.2086 22.7448 15.0901 22.7161C14.9736 22.6873 14.8531 22.6503 14.7446 22.5557C14.6924 22.5085 14.6421 22.4406 14.6241 22.3543C14.608 22.268 14.6261 22.1837 14.6542 22.1139C14.6843 22.044 14.7225 21.9844 14.7647 21.9309C14.7868 21.9042 14.8089 21.8795 14.831 21.8549C14.8551 21.8302 14.8772 21.8097 14.9073 21.783L14.845 21.9145L14.7587 21.4089L14.6683 20.9053C14.6401 20.7389 14.608 20.5724 14.5698 20.408C14.5377 20.2435 14.4995 20.0812 14.4553 19.9229C14.4111 19.7667 14.3629 19.6126 14.2926 19.4872L14.2665 19.444C14.2585 19.4317 14.2544 19.4255 14.2484 19.4132C14.2444 19.4029 14.2223 19.3844 14.2103 19.37C14.2143 19.37 14.1922 19.3536 14.1861 19.3474C14.1379 19.3145 14.1339 19.3104 14.1098 19.3145C14.0777 19.3228 14.0275 19.3783 13.9913 19.444C13.9551 19.5098 13.921 19.5858 13.8888 19.6619C13.8326 19.8243 13.7824 19.9907 13.7362 20.1613Z" fill="#5E1D12"/>
<path d="M15.2095 22.3875C14.0343 22.3875 13.0842 23.3617 13.0842 24.562C13.0842 25.7644 14.0363 26.7365 15.2095 26.7365C16.3826 26.7365 17.3348 25.7623 17.3348 24.562" stroke="white" stroke-width="0.234459" stroke-miterlimit="10" stroke-linecap="round"/>
<path d="M28.3358 18.314C28.3358 23.259 25.3487 28.3068 21.6645 28.3068C17.9804 28.3068 14.9933 23.259 14.9933 18.314C14.9933 13.3689 17.9804 10.399 21.6645 10.399C25.3487 10.399 28.3358 13.3689 28.3358 18.314Z" fill="#8E3E30"/>
<path d="M15.0431 20.6057C15.0431 20.6057 14.561 12.997 21.403 12.6929C28.2671 12.3866 28.1164 20.8606 28.1164 20.8606C28.1164 20.8606 31.3245 8.95428 22.2226 8.64805C12.753 8.33153 15.0431 20.6057 15.0431 20.6057Z" fill="#D84848"/>
<path d="M16.2774 15.5046C15.8756 14.9518 15.5442 14.3598 15.265 13.7453C14.373 16.9988 15.044 20.6059 15.044 20.6059C15.044 20.6059 14.8672 17.7819 16.2774 15.5046Z" fill="#C43333"/>
<path d="M27.8562 12.0784C27.6895 13.3403 27.356 14.5694 26.9201 15.7717C28.1636 18.0881 28.1174 20.8606 28.1174 20.8606C28.1174 20.8606 29.5095 15.6916 27.8562 12.0784Z" fill="#C43333"/>
<path d="M21.3123 19.0017C21.3826 19.1476 21.4369 19.3017 21.479 19.46C21.5232 19.6162 21.5534 19.7786 21.5775 19.9389C21.5996 20.1012 21.6096 20.2657 21.6136 20.4321C21.6116 20.5986 21.6036 20.7651 21.5835 20.9316C21.5594 21.0981 21.5212 21.2625 21.475 21.4248C21.4288 21.5893 21.3565 21.7455 21.2782 21.8976C21.238 21.9736 21.1958 22.0476 21.1456 22.1175C21.0974 22.1874 21.0411 22.2552 20.9869 22.3189C20.9306 22.3826 20.8724 22.4443 20.8081 22.5018C20.7458 22.5594 20.6755 22.6087 20.6092 22.6601L20.5871 22.3908C20.796 22.5244 20.9989 22.6683 21.2018 22.8122C21.4027 22.9581 21.6036 23.1061 21.7964 23.2684C21.5614 23.1842 21.3324 23.0876 21.1054 22.9889C20.8784 22.8882 20.6534 22.7855 20.4324 22.6765L20.2496 22.584L20.4104 22.4052C20.4606 22.3497 20.5128 22.3025 20.557 22.2429C20.6072 22.1894 20.6494 22.1319 20.6916 22.0743C20.7318 22.0147 20.7739 21.9551 20.8081 21.8914C20.8463 21.8297 20.8804 21.766 20.9126 21.7003C20.9427 21.6345 20.9748 21.5687 20.9989 21.5009L21.0733 21.2933C21.1195 21.1536 21.1556 21.0076 21.1837 20.8617C21.2159 20.7158 21.238 20.5637 21.2541 20.4136C21.2741 20.2616 21.2862 20.1074 21.2942 19.9533C21.3043 19.7971 21.3063 19.6409 21.3103 19.4826C21.3143 19.3223 21.3183 19.162 21.3123 19.0017Z" fill="#5E1D12"/>
<path d="M23.726 24.6167C23.726 24.6167 21.2873 26.5507 19.3709 24.3988L23.726 24.6167Z" fill="white"/>
<path d="M20.4552 18.2493C20.4552 18.2493 20.3869 18.2082 20.2704 18.1342C20.1539 18.0643 19.9911 17.9677 19.8003 17.867C19.6095 17.7663 19.3905 17.6656 19.1635 17.5957C19.049 17.5649 18.9345 17.5341 18.818 17.5217C18.7015 17.5115 18.587 17.4991 18.4725 17.5135C18.356 17.5176 18.2435 17.5443 18.127 17.5731C18.0145 17.6081 17.898 17.6471 17.7875 17.6985C17.677 17.7458 17.5685 17.8054 17.4641 17.8609C17.3616 17.9225 17.2612 17.978 17.1708 18.0397C17.0764 18.0952 16.992 18.1548 16.9156 18.2041C16.8373 18.2534 16.767 18.2986 16.7128 18.3377C16.5983 18.4137 16.5259 18.4528 16.5259 18.4528C16.5259 18.4528 16.544 18.3726 16.5942 18.239C16.6183 18.1712 16.6485 18.089 16.6947 18.0027C16.7369 17.9143 16.7911 17.8136 16.8594 17.7129C16.9237 17.6081 17.0101 17.5053 17.1025 17.3964C17.2029 17.2936 17.3114 17.1847 17.444 17.0922C17.5745 16.9956 17.7232 16.9113 17.8879 16.8455C18.0526 16.7818 18.2314 16.7366 18.4142 16.7243C18.597 16.7099 18.7818 16.7263 18.9566 16.7674C19.1314 16.8044 19.2901 16.8764 19.4347 16.9524C19.722 17.1127 19.9369 17.3203 20.0876 17.5176C20.2402 17.7129 20.3326 17.8999 20.3849 18.0314C20.4411 18.1671 20.4552 18.2493 20.4552 18.2493Z" fill="#161114"/>
<path d="M26.4526 18.5553C26.4526 18.5553 26.3903 18.5059 26.2818 18.4176C26.1734 18.3333 26.0247 18.2141 25.8459 18.0887C25.6692 17.9613 25.4623 17.8298 25.2433 17.7229C25.0223 17.6181 24.7913 17.5379 24.5543 17.5132C24.4357 17.4927 24.3172 17.4989 24.1967 17.5009C24.1364 17.5071 24.0762 17.5132 24.0159 17.5194C23.9556 17.5297 23.8954 17.54 23.8351 17.5502C23.7166 17.5749 23.5981 17.6098 23.4836 17.6427C23.3711 17.6838 23.2606 17.7147 23.1602 17.7578C23.0577 17.7948 22.9613 17.8339 22.8769 17.8688C22.7905 17.9017 22.7122 17.9305 22.6499 17.9592C22.5234 18.0127 22.443 18.0373 22.443 18.0373C22.443 18.0373 22.4772 17.9613 22.5495 17.838C22.5856 17.7763 22.6318 17.7023 22.6941 17.6242C22.7524 17.5441 22.8267 17.4577 22.9131 17.3714C22.9974 17.281 23.1039 17.1988 23.2184 17.1104C23.3369 17.0282 23.4695 16.948 23.6182 16.8823C23.7668 16.8165 23.9315 16.7651 24.1043 16.7363C24.2791 16.7117 24.4619 16.7014 24.6427 16.7261C24.8234 16.7487 25.0002 16.7959 25.1629 16.8679C25.3277 16.9337 25.4723 17.0282 25.6029 17.1268C25.862 17.3283 26.0468 17.5626 26.1734 17.7784C26.2999 17.9942 26.3682 18.1894 26.4064 18.3292C26.4466 18.471 26.4526 18.5553 26.4526 18.5553Z" fill="#161114"/>
<path d="M23.4894 21.0903C23.4894 21.0903 23.4694 21.0225 23.4493 20.9012C23.4312 20.78 23.4111 20.6032 23.4232 20.3874C23.4312 20.2805 23.4432 20.1613 23.4754 20.038C23.5095 19.9168 23.5497 19.7832 23.6321 19.6598C23.7044 19.5324 23.8189 19.4173 23.9555 19.331C24.0258 19.2961 24.1021 19.2611 24.1785 19.2385L24.295 19.2159L24.3532 19.2056L24.3673 19.2036H24.3974H24.4235L24.524 19.2077C24.5421 19.2097 24.5561 19.2077 24.5762 19.2118L24.6405 19.2282C24.6847 19.2385 24.7269 19.2508 24.7691 19.2652C24.8092 19.2796 24.8434 19.3022 24.8795 19.3207C25.0262 19.3947 25.1246 19.5242 25.211 19.6393C25.2451 19.701 25.2853 19.7606 25.3114 19.8243C25.3355 19.888 25.3637 19.9476 25.3797 20.0072C25.4199 20.1264 25.442 20.2415 25.4581 20.3484C25.4902 20.5601 25.4882 20.7389 25.4822 20.8601C25.4741 20.9835 25.4621 21.0533 25.4621 21.0533C25.4621 21.0533 25.446 20.9855 25.4159 20.8684C25.3858 20.7512 25.3396 20.5868 25.2733 20.3977C25.2391 20.3032 25.1969 20.2045 25.1507 20.1038C25.1025 20.0031 25.0402 19.9085 24.974 19.8181C24.9016 19.7359 24.8213 19.6578 24.7269 19.6126C24.7048 19.6023 24.6807 19.5859 24.6586 19.5797C24.6365 19.5756 24.6144 19.5694 24.5943 19.5633L24.5621 19.553C24.5481 19.5509 24.53 19.5509 24.5139 19.5509L24.4135 19.5489L24.3874 19.5468H24.3814H24.3773H24.3753C24.3713 19.5468 24.4095 19.5468 24.3914 19.5468L24.3814 19.5489L24.3412 19.555L24.2588 19.5674C24.2066 19.5817 24.1584 19.6023 24.1102 19.6229C24.0238 19.6804 23.9334 19.74 23.8711 19.8345C23.7385 20.0113 23.6602 20.2312 23.608 20.4224C23.5577 20.6156 23.5296 20.7841 23.5095 20.9033C23.4975 21.0205 23.4894 21.0903 23.4894 21.0903Z" fill="#161114"/>
<path d="M17.5582 21.0903C17.5582 21.0903 17.5381 21.0225 17.518 20.9012C17.4999 20.78 17.4798 20.6032 17.4919 20.3874C17.4999 20.2805 17.5119 20.1613 17.5441 20.038C17.5782 19.9168 17.6184 19.7832 17.7008 19.6598C17.7731 19.5324 17.8876 19.4173 18.0242 19.331C18.0945 19.2961 18.1708 19.2611 18.2472 19.2385L18.3637 19.2159L18.4219 19.2056L18.436 19.2036H18.4661H18.4922L18.5927 19.2077C18.6108 19.2097 18.6248 19.2077 18.6449 19.2118L18.7092 19.2282C18.7534 19.2385 18.7956 19.2508 18.8378 19.2652C18.8779 19.2796 18.9121 19.3022 18.9483 19.3207C19.0949 19.3947 19.1933 19.5242 19.2797 19.6393C19.3139 19.701 19.354 19.7606 19.3801 19.8243C19.4042 19.888 19.4324 19.9476 19.4484 20.0072C19.4886 20.1264 19.5107 20.2415 19.5268 20.3484C19.5589 20.5601 19.5569 20.7389 19.5489 20.8601C19.5409 20.9835 19.5288 21.0533 19.5288 21.0533C19.5288 21.0533 19.5127 20.9855 19.4826 20.8684C19.4525 20.7512 19.4063 20.5868 19.34 20.3977C19.3058 20.3032 19.2636 20.2045 19.2174 20.1038C19.1692 20.0031 19.1069 19.9085 19.0407 19.8181C18.9683 19.7359 18.888 19.6578 18.7936 19.6126C18.7715 19.6023 18.7474 19.5859 18.7253 19.5797C18.7032 19.5756 18.6811 19.5694 18.661 19.5633L18.6288 19.553C18.6148 19.5509 18.5967 19.5509 18.5806 19.5509L18.4802 19.5489L18.4541 19.5468H18.4481H18.444H18.442C18.438 19.5468 18.4762 19.5468 18.4581 19.5468L18.4481 19.5489L18.4079 19.555L18.3255 19.5674C18.2733 19.5817 18.2251 19.6023 18.1769 19.6229C18.0905 19.6804 18.0001 19.74 17.9378 19.8345C17.8052 20.0113 17.7269 20.2312 17.6747 20.4224C17.6244 20.6156 17.5963 20.7841 17.5762 20.9033C17.5662 21.0205 17.5582 21.0903 17.5582 21.0903Z" fill="#161114"/>
</g>
</svg>
