<svg width="25" height="24" viewBox="0 0 25 24" fill="none" xmlns="http://www.w3.org/2000/svg">
<path d="M3.70001 20.5C4.53001 21.33 5.87001 21.33 6.70001 20.5L19.7 7.5C20.53 6.67 20.53 5.33 19.7 4.5C18.87 3.67 17.53 3.67 16.7 4.5L3.70001 17.5C2.87001 18.33 2.87001 19.67 3.70001 20.5Z" stroke="#9D9EA1" stroke-width="1.5" stroke-linecap="round" stroke-linejoin="round"/>
<path d="M18.21 8.98999L15.21 5.98999" stroke="#9D9EA1" stroke-width="1.5" stroke-linecap="round" stroke-linejoin="round"/>
<path d="M8.7 2.44L10.2 2L9.76 3.5L10.2 5L8.7 4.56L7.2 5L7.64 3.5L7.2 2L8.7 2.44Z" stroke="#9D9EA1" stroke-linecap="round" stroke-linejoin="round"/>
<path d="M4.7 8.44L6.2 8L5.76 9.5L6.2 11L4.7 10.56L3.2 11L3.64 9.5L3.2 8L4.7 8.44Z" stroke="#9D9EA1" stroke-linecap="round" stroke-linejoin="round"/>
<path d="M19.7 13.44L21.2 13L20.76 14.5L21.2 16L19.7 15.56L18.2 16L18.64 14.5L18.2 13L19.7 13.44Z" stroke="#9D9EA1" stroke-linecap="round" stroke-linejoin="round"/>
</svg>
