<svg width="25" height="24" viewBox="0 0 25 24" fill="none" xmlns="http://www.w3.org/2000/svg">
<path d="M8.60001 2V5" stroke="#9D9EA1" stroke-width="1.5" stroke-miterlimit="10" stroke-linecap="round" stroke-linejoin="round"/>
<path d="M16.6 2V5" stroke="#9D9EA1" stroke-width="1.5" stroke-miterlimit="10" stroke-linecap="round" stroke-linejoin="round"/>
<path d="M16.6 3.5C19.93 3.68 21.6 4.95 21.6 9.65V15.83C21.6 19.95 20.6 22.01 15.6 22.01H9.60001C4.60001 22.01 3.60001 19.95 3.60001 15.83V9.65C3.60001 4.95 5.27001 3.69 8.60001 3.5H16.6Z" stroke="#9D9EA1" stroke-width="1.5" stroke-miterlimit="10" stroke-linecap="round" stroke-linejoin="round"/>
<path d="M21.35 17.6H3.85001" stroke="#9D9EA1" stroke-width="1.5" stroke-miterlimit="10" stroke-linecap="round" stroke-linejoin="round"/>
<path d="M12.6 8.25C11.37 8.25 10.33 8.92 10.33 10.22C10.33 10.84 10.62 11.31 11.06 11.61C10.45 11.97 10.1 12.55 10.1 13.23C10.1 14.47 11.05 15.24 12.6 15.24C14.14 15.24 15.1 14.47 15.1 13.23C15.1 12.55 14.75 11.96 14.13 11.61C14.58 11.3 14.86 10.84 14.86 10.22C14.86 8.92 13.83 8.25 12.6 8.25ZM12.6 11.09C12.08 11.09 11.7 10.78 11.7 10.29C11.7 9.79 12.08 9.5 12.6 9.5C13.12 9.5 13.5 9.79 13.5 10.29C13.5 10.78 13.12 11.09 12.6 11.09ZM12.6 14C11.94 14 11.46 13.67 11.46 13.07C11.46 12.47 11.94 12.15 12.6 12.15C13.26 12.15 13.74 12.48 13.74 13.07C13.74 13.67 13.26 14 12.6 14Z" fill="#9D9EA1"/>
</svg>
