<svg width="25" height="24" viewBox="0 0 25 24" fill="none" xmlns="http://www.w3.org/2000/svg">
<path d="M12.1995 5.77926L12.8 6.58196L13.4006 5.77926C14.2757 4.60957 15.6774 3.84998 17.24 3.84998C19.8923 3.84998 22.05 6.01068 22.05 8.68998C22.05 9.79841 21.8733 10.8206 21.5664 11.7691L21.5649 11.774C20.8286 14.104 19.3165 15.9907 17.6724 17.4037C16.025 18.8195 14.2881 19.7224 13.1784 20.0999L13.1784 20.0999L13.1704 20.1027C13.1056 20.1256 12.9714 20.15 12.8 20.15C12.6286 20.15 12.4944 20.1256 12.4296 20.1027L12.4297 20.1027L12.4216 20.0999C11.3119 19.7224 9.57503 18.8195 7.92762 17.4037C6.28351 15.9907 4.77147 14.104 4.03517 11.774L4.03519 11.774L4.03361 11.7691C3.72674 10.8206 3.55003 9.79841 3.55003 8.68998C3.55003 6.01068 5.70774 3.84998 8.36003 3.84998C9.92267 3.84998 11.3244 4.60957 12.1995 5.77926Z" fill="white" stroke="#98A2B3" stroke-width="1.5"/>
</svg>
